Normalized EMG Linear Envelopes
nRows=213
nColumns=4

endheader
time	 med_gas_r	  soleus_r	 tib_ant_r	
6.3871	  0.031033	  0.074171	  0.060758	
6.42036	  0.031300	  0.077151	  0.062444	
6.45363	  0.031487	  0.079654	  0.063689	
6.4869	  0.031515	  0.081146	  0.064204	
6.52016	  0.031350	  0.081514	  0.063857	
6.55343	  0.031021	  0.081132	  0.062763	
6.58669	  0.030602	  0.080617	  0.061281	
6.61996	  0.030160	  0.080402	  0.059894	
6.65323	  0.029723	  0.080494	  0.059012	
6.68649	  0.029285	  0.080545	  0.058825	
6.71976	  0.028839	  0.080157	  0.059261	
6.75302	  0.028404	  0.079205	  0.060094	
6.78629	  0.028035	  0.077964	  0.061098	
6.81956	  0.027812	  0.076944	  0.062142	
6.85282	  0.027793	  0.076542	  0.063206	
6.88609	  0.027984	  0.076775	  0.064315	
6.91935	  0.028332	  0.077348	  0.065471	
6.95262	  0.028749	  0.077954	  0.066636	
6.98589	  0.029164	  0.078508	  0.067816	
7.01915	  0.029548	  0.079068	  0.069125	
7.05242	  0.029914	  0.079588	  0.070701	
7.08569	  0.030296	  0.079881	  0.072480	
7.11895	  0.030705	  0.079868	  0.074083	
7.15222	  0.031100	  0.079808	  0.074976	
7.18548	  0.031389	  0.080122	  0.074793	
7.21875	  0.031469	  0.080953	  0.073537	
7.25202	  0.031303	  0.081950	  0.071506	
7.28528	  0.030960	  0.082564	  0.069100	
7.31855	  0.030574	  0.082524	  0.066692	
7.35181	  0.030252	  0.082020	  0.064621	
7.38508	  0.030020	  0.081469	  0.063162	
7.41835	  0.029861	  0.081223	  0.062427	
7.45161	  0.029805	  0.081516	  0.062257	
7.48488	  0.029936	  0.082518	  0.062287	
7.51815	  0.030314	  0.084250	  0.062147	
7.55141	  0.030886	  0.086410	  0.061647	
7.58468	  0.031487	  0.088418	  0.060799	
7.61794	  0.031966	  0.089767	  0.059760	
7.65121	  0.032309	  0.090353	  0.058788	
7.68448	  0.032663	  0.090422	  0.058195	
7.71774	  0.033222	  0.090237	  0.058256	
7.75101	  0.034089	  0.089833	  0.059091	
7.78427	  0.035176	  0.089065	  0.060628	
7.81754	  0.036230	  0.087806	  0.062655	
7.85081	  0.036948	  0.086061	  0.064893	
7.88407	  0.037127	  0.083986	  0.067030	
7.91734	  0.036751	  0.081863	  0.068752	
7.9506	  0.035965	  0.080010	  0.069823	
7.98387	  0.034973	  0.078615	  0.070174	
8.01714	  0.033944	  0.077664	  0.069940	
8.0504	  0.032978	  0.077055	  0.069386	
8.08367	  0.032124	  0.076814	  0.068791	
8.11694	  0.031425	  0.077125	  0.068344	
8.1502	  0.030966	  0.078123	  0.068101	
8.18347	  0.030914	  0.079671	  0.067994	
8.21673	  0.031537	  0.081398	  0.067928	
8.25	  0.033203	  0.082944	  0.067911	
8.28327	  0.036362	  0.084138	  0.068126	
8.31653	  0.041547	  0.084972	  0.068906	
8.3498	  0.049345	  0.085478	  0.070684	
8.38306	  0.060274	  0.085701	  0.073985	
8.41633	  0.074455	  0.085724	  0.079462	
8.4496	  0.091135	  0.085648	  0.087821	
8.48286	  0.108353	  0.085498	  0.099552	
8.51613	  0.123156	  0.085207	  0.114549	
8.5494	  0.132545	  0.084732	  0.131916	
8.58266	  0.134804	  0.084158	  0.150210	
8.61593	  0.130417	  0.083670	  0.168087	
8.64919	  0.121939	  0.083409	  0.184901	
8.68246	  0.112826	  0.083395	  0.200821	
8.71573	  0.105942	  0.083593	  0.216448	
8.74899	  0.102610	  0.084069	  0.232347	
8.78226	  0.102595	  0.085042	  0.248883	
8.81552	  0.104781	  0.086757	  0.266323	
8.84879	  0.107969	  0.089267	  0.284916	
8.88206	  0.111345	  0.092314	  0.304805	
8.91532	  0.114540	  0.095436	  0.325848	
8.94859	  0.117508	  0.098211	  0.347453	
8.98185	  0.120399	  0.100464	  0.368544	
9.01512	  0.123404	  0.102314	  0.387735	
9.04839	  0.126551	  0.104068	  0.403730	
9.08165	  0.129572	  0.106044	  0.415776	
9.11492	  0.132022	  0.108404	  0.423940	
9.14819	  0.133549	  0.111088	  0.429104	
9.18145	  0.134044	  0.113873	  0.432727	
9.21472	  0.133593	  0.116518	  0.436393	
9.24798	  0.132373	  0.118886	  0.441225	
9.28125	  0.130663	  0.120995	  0.447460	
9.31452	  0.128844	  0.122942	  0.454560	
9.34778	  0.127292	  0.124775	  0.461881	
9.38105	  0.126231	  0.126402	  0.469314	
9.41431	  0.125779	  0.127615	  0.477280	
9.44758	  0.126122	  0.128180	  0.486061	
9.48085	  0.127558	  0.127933	  0.495115	
9.51411	  0.130207	  0.126827	  0.502966	
9.54738	  0.133618	  0.124916	  0.507656	
9.58065	  0.136747	  0.122330	  0.507437	
9.61391	  0.138443	  0.119232	  0.501394	
9.64718	  0.138126	  0.115787	  0.489977	
9.68044	  0.136099	  0.112202	  0.475258	
9.71371	  0.133290	  0.108806	  0.460530	
9.74698	  0.130678	  0.106065	  0.449055	
9.78024	  0.128881	  0.104460	  0.442582	
9.81351	  0.128099	  0.104298	  0.440769	
9.84677	  0.128299	  0.105651	  0.442014	
9.88004	  0.129371	  0.108422	  0.444917	
9.91331	  0.131115	  0.112404	  0.449073	
9.94657	  0.133153	  0.117218	  0.454709	
9.97984	  0.134940	  0.122240	  0.461841	
10.0131	  0.135973	  0.126660	  0.469908	
10.0464	  0.136084	  0.129715	  0.478162	
10.0796	  0.135566	  0.130990	  0.486275	
10.1129	  0.134998	  0.130602	  0.494516	
10.1462	  0.134913	  0.129171	  0.503429	
10.1794	  0.135590	  0.127575	  0.513435	
10.2127	  0.137136	  0.126606	  0.524683	
10.246	  0.139683	  0.126696	  0.536991	
10.2792	  0.143381	  0.127842	  0.549681	
10.3125	  0.148120	  0.129739	  0.561465	
10.3458	  0.153348	  0.131981	  0.570792	
10.379	  0.158291	  0.134203	  0.576661	
10.4123	  0.162446	  0.136128	  0.579366	
10.4456	  0.165793	  0.137611	  0.580580	
10.4788	  0.168470	  0.138696	  0.582645	
10.5121	  0.170287	  0.139571	  0.587462	
10.5454	  0.170697	  0.140365	  0.595551	
10.5786	  0.169341	  0.140958	  0.605890	
10.6119	  0.166637	  0.141019	  0.616718	
10.6452	  0.163779	  0.140322	  0.626784	
10.6784	  0.162071	  0.139009	  0.635989	
10.7117	  0.162088	  0.137558	  0.644852	
10.745	  0.163280	  0.136512	  0.653285	
10.7782	  0.164306	  0.136295	  0.659901	
10.8115	  0.163885	  0.137213	  0.662527	
10.8448	  0.161584	  0.139462	  0.659475	
10.878	  0.158040	  0.142944	  0.650526	
10.9113	  0.154520	  0.147057	  0.637015	
10.9446	  0.152149	  0.150774	  0.621307	
10.9778	  0.151366	  0.153113	  0.606192	
11.0111	  0.151948	  0.153680	  0.594369	
11.0444	  0.153446	  0.152821	  0.587789	
11.0776	  0.155577	  0.151261	  0.586863	
11.1109	  0.158239	  0.149552	  0.590017	
11.1442	  0.161252	  0.147766	  0.594162	
11.1774	  0.164180	  0.145630	  0.596085	
11.2107	  0.166412	  0.142888	  0.593951	
11.244	  0.167432	  0.139556	  0.588001	
11.2772	  0.167070	  0.135918	  0.580008	
11.3105	  0.165598	  0.132339	  0.571915	
11.3437	  0.163596	  0.129079	  0.564535	
11.377	  0.161669	  0.126242	  0.557225	
11.4103	  0.160220	  0.123891	  0.548780	
11.4435	  0.159424	  0.122233	  0.538929	
11.4768	  0.159394	  0.121716	  0.529230	
11.5101	  0.160326	  0.122909	  0.522541	
11.5433	  0.162444	  0.126161	  0.521357	
11.5766	  0.165770	  0.131217	  0.526202	
11.6099	  0.169990	  0.137073	  0.535264	
11.6431	  0.174602	  0.142280	  0.545444	
11.6764	  0.179202	  0.145642	  0.553943	
11.7097	  0.183562	  0.146888	  0.559286	
11.7429	  0.187438	  0.146777	  0.561324	
11.7762	  0.190405	  0.146507	  0.560633	
11.8095	  0.192013	  0.146896	  0.558027	
11.8427	  0.192107	  0.147968	  0.554434	
11.876	  0.190934	  0.149199	  0.550821	
11.9093	  0.188919	  0.150098	  0.547803	
11.9425	  0.186440	  0.150592	  0.545072	
11.9758	  0.183911	  0.150944	  0.541199	
12.0091	  0.182025	  0.151337	  0.534238	
12.0423	  0.181699	  0.151535	  0.522892	
12.0756	  0.183598	  0.150928	  0.507560	
12.1089	  0.187660	  0.148957	  0.490588	
12.1421	  0.193199	  0.145551	  0.475570	
12.1754	  0.199545	  0.141234	  0.465995	
12.2087	  0.206528	  0.136878	  0.463896	
12.2419	  0.214133	  0.133342	  0.469126	
12.2752	  0.221601	  0.131237	  0.479567	
12.3085	  0.226972	  0.130785	  0.492051	
12.3417	  0.227836	  0.131695	  0.503494	
12.375	  0.222808	  0.133121	  0.511819	
12.4083	  0.212463	  0.133908	  0.516348	
12.4415	  0.198892	  0.133071	  0.517507	
12.4748	  0.184344	  0.130234	  0.515937	
12.5081	  0.170186	  0.125680	  0.511540	
12.5413	  0.156858	  0.120021	  0.503133	
12.5746	  0.144485	  0.113808	  0.489023	
12.6079	  0.133315	  0.107400	  0.468149	
12.6411	  0.123605	  0.101113	  0.441070	
12.6744	  0.115247	  0.095338	  0.410141	
12.7077	  0.107667	  0.090423	  0.378744	
12.7409	  0.100154	  0.086440	  0.349954	
12.7742	  0.092349	  0.083127	  0.325369	
12.8075	  0.084455	  0.080080	  0.304744	
12.8407	  0.077051	  0.076989	  0.286594	
12.874	  0.070711	  0.073689	  0.269236	
12.9073	  0.065726	  0.070064	  0.251474	
12.9405	  0.062044	  0.065997	  0.232639	
12.9738	  0.059390	  0.061481	  0.212350	
13.0071	  0.057431	  0.056735	  0.190457	
13.0403	  0.055899	  0.052182	  0.167191	
13.0736	  0.054670	  0.048254	  0.143221	
13.1069	  0.053787	  0.045182	  0.119511	
13.1401	  0.053443	  0.042931	  0.097082	
13.1734	  0.053911	  0.041300	  0.076840	
13.2067	  0.055444	  0.040076	  0.059423	
13.2399	  0.058145	  0.039131	  0.045059	
13.2732	  0.061791	  0.038403	  0.033499	
13.3065	  0.065683	  0.037848	  0.024159	
13.3397	  0.068684	  0.037420	  0.016394	
13.373	  0.069637	  0.037092	  0.009729	
13.4062	  0.068037	  0.036857	  0.003900	
13.4395	  0.064472	  0.036698	 -0.001232	
